G04 EAGLE Gerber RS-274X export*
G75*
%MOMM*%
%FSLAX34Y34*%
%LPD*%
%IN*%
%IPPOS*%
%AMOC8*
5,1,8,0,0,1.08239X$1,22.5*%
G01*
%ADD10C,0.254000*%


D10*
X0Y0D02*
X707900Y0D01*
X707900Y1193700D01*
X0Y1193700D01*
X0Y0D01*
X17700Y12419D02*
X17637Y11861D01*
X17512Y11314D01*
X17327Y10784D01*
X17083Y10278D01*
X16784Y9802D01*
X16434Y9363D01*
X16037Y8966D01*
X15598Y8616D01*
X15122Y8317D01*
X14616Y8073D01*
X14086Y7888D01*
X13539Y7763D01*
X12981Y7700D01*
X12419Y7700D01*
X11861Y7763D01*
X11314Y7888D01*
X10784Y8073D01*
X10278Y8317D01*
X9802Y8616D01*
X9363Y8966D01*
X8966Y9363D01*
X8616Y9802D01*
X8317Y10278D01*
X8073Y10784D01*
X7888Y11314D01*
X7763Y11861D01*
X7700Y12419D01*
X7700Y12981D01*
X7763Y13539D01*
X7888Y14086D01*
X8073Y14616D01*
X8317Y15122D01*
X8616Y15598D01*
X8966Y16037D01*
X9363Y16434D01*
X9802Y16784D01*
X10278Y17083D01*
X10784Y17327D01*
X11314Y17512D01*
X11861Y17637D01*
X12419Y17700D01*
X12981Y17700D01*
X13539Y17637D01*
X14086Y17512D01*
X14616Y17327D01*
X15122Y17083D01*
X15598Y16784D01*
X16037Y16434D01*
X16434Y16037D01*
X16784Y15598D01*
X17083Y15122D01*
X17327Y14616D01*
X17512Y14086D01*
X17637Y13539D01*
X17700Y12981D01*
X17700Y12419D01*
X703500Y12419D02*
X703437Y11861D01*
X703312Y11314D01*
X703127Y10784D01*
X702883Y10278D01*
X702584Y9802D01*
X702234Y9363D01*
X701837Y8966D01*
X701398Y8616D01*
X700922Y8317D01*
X700416Y8073D01*
X699886Y7888D01*
X699339Y7763D01*
X698781Y7700D01*
X698219Y7700D01*
X697661Y7763D01*
X697114Y7888D01*
X696584Y8073D01*
X696078Y8317D01*
X695602Y8616D01*
X695163Y8966D01*
X694766Y9363D01*
X694416Y9802D01*
X694117Y10278D01*
X693873Y10784D01*
X693688Y11314D01*
X693563Y11861D01*
X693500Y12419D01*
X693500Y12981D01*
X693563Y13539D01*
X693688Y14086D01*
X693873Y14616D01*
X694117Y15122D01*
X694416Y15598D01*
X694766Y16037D01*
X695163Y16434D01*
X695602Y16784D01*
X696078Y17083D01*
X696584Y17327D01*
X697114Y17512D01*
X697661Y17637D01*
X698219Y17700D01*
X698781Y17700D01*
X699339Y17637D01*
X699886Y17512D01*
X700416Y17327D01*
X700922Y17083D01*
X701398Y16784D01*
X701837Y16434D01*
X702234Y16037D01*
X702584Y15598D01*
X702883Y15122D01*
X703127Y14616D01*
X703312Y14086D01*
X703437Y13539D01*
X703500Y12981D01*
X703500Y12419D01*
X17700Y1180819D02*
X17637Y1180261D01*
X17512Y1179714D01*
X17327Y1179184D01*
X17083Y1178678D01*
X16784Y1178202D01*
X16434Y1177763D01*
X16037Y1177366D01*
X15598Y1177016D01*
X15122Y1176717D01*
X14616Y1176473D01*
X14086Y1176288D01*
X13539Y1176163D01*
X12981Y1176100D01*
X12419Y1176100D01*
X11861Y1176163D01*
X11314Y1176288D01*
X10784Y1176473D01*
X10278Y1176717D01*
X9802Y1177016D01*
X9363Y1177366D01*
X8966Y1177763D01*
X8616Y1178202D01*
X8317Y1178678D01*
X8073Y1179184D01*
X7888Y1179714D01*
X7763Y1180261D01*
X7700Y1180819D01*
X7700Y1181381D01*
X7763Y1181939D01*
X7888Y1182486D01*
X8073Y1183016D01*
X8317Y1183522D01*
X8616Y1183998D01*
X8966Y1184437D01*
X9363Y1184834D01*
X9802Y1185184D01*
X10278Y1185483D01*
X10784Y1185727D01*
X11314Y1185912D01*
X11861Y1186037D01*
X12419Y1186100D01*
X12981Y1186100D01*
X13539Y1186037D01*
X14086Y1185912D01*
X14616Y1185727D01*
X15122Y1185483D01*
X15598Y1185184D01*
X16037Y1184834D01*
X16434Y1184437D01*
X16784Y1183998D01*
X17083Y1183522D01*
X17327Y1183016D01*
X17512Y1182486D01*
X17637Y1181939D01*
X17700Y1181381D01*
X17700Y1180819D01*
X703500Y1180819D02*
X703437Y1180261D01*
X703312Y1179714D01*
X703127Y1179184D01*
X702883Y1178678D01*
X702584Y1178202D01*
X702234Y1177763D01*
X701837Y1177366D01*
X701398Y1177016D01*
X700922Y1176717D01*
X700416Y1176473D01*
X699886Y1176288D01*
X699339Y1176163D01*
X698781Y1176100D01*
X698219Y1176100D01*
X697661Y1176163D01*
X697114Y1176288D01*
X696584Y1176473D01*
X696078Y1176717D01*
X695602Y1177016D01*
X695163Y1177366D01*
X694766Y1177763D01*
X694416Y1178202D01*
X694117Y1178678D01*
X693873Y1179184D01*
X693688Y1179714D01*
X693563Y1180261D01*
X693500Y1180819D01*
X693500Y1181381D01*
X693563Y1181939D01*
X693688Y1182486D01*
X693873Y1183016D01*
X694117Y1183522D01*
X694416Y1183998D01*
X694766Y1184437D01*
X695163Y1184834D01*
X695602Y1185184D01*
X696078Y1185483D01*
X696584Y1185727D01*
X697114Y1185912D01*
X697661Y1186037D01*
X698219Y1186100D01*
X698781Y1186100D01*
X699339Y1186037D01*
X699886Y1185912D01*
X700416Y1185727D01*
X700922Y1185483D01*
X701398Y1185184D01*
X701837Y1184834D01*
X702234Y1184437D01*
X702584Y1183998D01*
X702883Y1183522D01*
X703127Y1183016D01*
X703312Y1182486D01*
X703437Y1181939D01*
X703500Y1181381D01*
X703500Y1180819D01*
X482929Y55330D02*
X482189Y55395D01*
X481459Y55524D01*
X480742Y55716D01*
X480044Y55970D01*
X479371Y56283D01*
X478729Y56654D01*
X478121Y57080D01*
X477552Y57557D01*
X477027Y58082D01*
X476550Y58651D01*
X476124Y59259D01*
X475753Y59901D01*
X475440Y60574D01*
X475186Y61272D01*
X474994Y61989D01*
X474865Y62719D01*
X474800Y63459D01*
X474800Y64201D01*
X474865Y64941D01*
X474994Y65672D01*
X475186Y66388D01*
X475440Y67086D01*
X475753Y67759D01*
X476124Y68401D01*
X476550Y69009D01*
X477027Y69578D01*
X477552Y70103D01*
X478121Y70580D01*
X478729Y71006D01*
X479371Y71377D01*
X480044Y71690D01*
X480742Y71944D01*
X481459Y72136D01*
X482189Y72265D01*
X482929Y72330D01*
X483671Y72330D01*
X484411Y72265D01*
X485142Y72136D01*
X485858Y71944D01*
X486556Y71690D01*
X487229Y71377D01*
X487871Y71006D01*
X488479Y70580D01*
X489048Y70103D01*
X489573Y69578D01*
X490050Y69009D01*
X490476Y68401D01*
X490847Y67759D01*
X491160Y67086D01*
X491414Y66388D01*
X491606Y65672D01*
X491735Y64941D01*
X491800Y64201D01*
X491800Y63459D01*
X491735Y62719D01*
X491606Y61989D01*
X491414Y61272D01*
X491160Y60574D01*
X490847Y59901D01*
X490476Y59259D01*
X490050Y58651D01*
X489573Y58082D01*
X489048Y57557D01*
X488479Y57080D01*
X487871Y56654D01*
X487229Y56283D01*
X486556Y55970D01*
X485858Y55716D01*
X485142Y55524D01*
X484411Y55395D01*
X483671Y55330D01*
X482929Y55330D01*
X241429Y55330D02*
X240689Y55395D01*
X239959Y55524D01*
X239242Y55716D01*
X238544Y55970D01*
X237871Y56283D01*
X237229Y56654D01*
X236621Y57080D01*
X236052Y57557D01*
X235527Y58082D01*
X235050Y58651D01*
X234624Y59259D01*
X234253Y59901D01*
X233940Y60574D01*
X233686Y61272D01*
X233494Y61989D01*
X233365Y62719D01*
X233300Y63459D01*
X233300Y64201D01*
X233365Y64941D01*
X233494Y65672D01*
X233686Y66388D01*
X233940Y67086D01*
X234253Y67759D01*
X234624Y68401D01*
X235050Y69009D01*
X235527Y69578D01*
X236052Y70103D01*
X236621Y70580D01*
X237229Y71006D01*
X237871Y71377D01*
X238544Y71690D01*
X239242Y71944D01*
X239959Y72136D01*
X240689Y72265D01*
X241429Y72330D01*
X242171Y72330D01*
X242911Y72265D01*
X243642Y72136D01*
X244358Y71944D01*
X245056Y71690D01*
X245729Y71377D01*
X246371Y71006D01*
X246979Y70580D01*
X247548Y70103D01*
X248073Y69578D01*
X248550Y69009D01*
X248976Y68401D01*
X249347Y67759D01*
X249660Y67086D01*
X249914Y66388D01*
X250106Y65672D01*
X250235Y64941D01*
X250300Y64201D01*
X250300Y63459D01*
X250235Y62719D01*
X250106Y61989D01*
X249914Y61272D01*
X249660Y60574D01*
X249347Y59901D01*
X248976Y59259D01*
X248550Y58651D01*
X248073Y58082D01*
X247548Y57557D01*
X246979Y57080D01*
X246371Y56654D01*
X245729Y56283D01*
X245056Y55970D01*
X244358Y55716D01*
X243642Y55524D01*
X242911Y55395D01*
X242171Y55330D01*
X241429Y55330D01*
M02*
