G04 EAGLE Gerber RS-274X export*
G75*
%MOMM*%
%FSLAX34Y34*%
%LPD*%
%INSoldermask Bottom*%
%IPPOS*%
%AMOC8*
5,1,8,0,0,1.08239X$1,22.5*%
G01*
%ADD10C,1.203200*%
%ADD11C,1.600200*%
%ADD12R,1.928200X1.928200*%
%ADD13C,1.928200*%
%ADD14C,1.903200*%
%ADD15C,5.503200*%
%ADD16C,5.203200*%
%ADD17C,1.727200*%
%ADD18C,0.959600*%


D10*
X12700Y12700D03*
X698500Y12700D03*
X12700Y1181100D03*
X698500Y1181100D03*
D11*
X215900Y1143000D03*
X215900Y1117600D03*
X190500Y1143000D03*
X190500Y1117600D03*
X165100Y1143000D03*
X165100Y1117600D03*
X139700Y1143000D03*
X139700Y1117600D03*
X114300Y1143000D03*
X114300Y1117600D03*
D12*
X342900Y939800D03*
D13*
X342900Y914400D03*
X317500Y939800D03*
X317500Y914400D03*
X292100Y939800D03*
X292100Y914400D03*
X266700Y939800D03*
X266700Y914400D03*
X241300Y939800D03*
X241300Y914400D03*
X215900Y939800D03*
X215900Y914400D03*
X190500Y939800D03*
X190500Y914400D03*
X165100Y939800D03*
X165100Y914400D03*
X139700Y939800D03*
X139700Y914400D03*
X114300Y939800D03*
X114300Y914400D03*
D14*
X483300Y63830D03*
X241800Y63830D03*
D15*
X558800Y1028700D03*
D16*
X558800Y1088700D03*
D15*
X511800Y1058700D03*
D17*
X614680Y787400D02*
X629920Y787400D01*
X629920Y762000D02*
X614680Y762000D01*
X614680Y736600D02*
X629920Y736600D01*
X629920Y711200D02*
X614680Y711200D01*
X614680Y685800D02*
X629920Y685800D01*
X629920Y660400D02*
X614680Y660400D01*
X614680Y635000D02*
X629920Y635000D01*
X629920Y609600D02*
X614680Y609600D01*
X614680Y584200D02*
X629920Y584200D01*
X629920Y558800D02*
X614680Y558800D01*
X614680Y533400D02*
X629920Y533400D01*
X629920Y508000D02*
X614680Y508000D01*
X614680Y482600D02*
X629920Y482600D01*
X629920Y457200D02*
X614680Y457200D01*
X614680Y431800D02*
X629920Y431800D01*
X629920Y406400D02*
X614680Y406400D01*
X614680Y381000D02*
X629920Y381000D01*
X629920Y355600D02*
X614680Y355600D01*
X614680Y330200D02*
X629920Y330200D01*
X629920Y304800D02*
X614680Y304800D01*
X614680Y279400D02*
X629920Y279400D01*
X629920Y254000D02*
X614680Y254000D01*
X614680Y228600D02*
X629920Y228600D01*
X629920Y203200D02*
X614680Y203200D01*
X614680Y177800D02*
X629920Y177800D01*
X96520Y177800D02*
X81280Y177800D01*
X81280Y203200D02*
X96520Y203200D01*
X96520Y228600D02*
X81280Y228600D01*
X81280Y254000D02*
X96520Y254000D01*
X96520Y279400D02*
X81280Y279400D01*
X81280Y304800D02*
X96520Y304800D01*
X96520Y330200D02*
X81280Y330200D01*
X81280Y355600D02*
X96520Y355600D01*
X96520Y381000D02*
X81280Y381000D01*
X81280Y406400D02*
X96520Y406400D01*
X96520Y431800D02*
X81280Y431800D01*
X81280Y457200D02*
X96520Y457200D01*
X96520Y482600D02*
X81280Y482600D01*
X81280Y508000D02*
X96520Y508000D01*
X96520Y533400D02*
X81280Y533400D01*
X81280Y558800D02*
X96520Y558800D01*
X96520Y584200D02*
X81280Y584200D01*
X81280Y609600D02*
X96520Y609600D01*
X96520Y635000D02*
X81280Y635000D01*
X81280Y660400D02*
X96520Y660400D01*
X96520Y685800D02*
X81280Y685800D01*
X81280Y711200D02*
X96520Y711200D01*
X96520Y736600D02*
X81280Y736600D01*
X81280Y762000D02*
X96520Y762000D01*
X96520Y787400D02*
X81280Y787400D01*
X152400Y779780D02*
X152400Y795020D01*
X177800Y795020D02*
X177800Y779780D01*
X203200Y779780D02*
X203200Y795020D01*
X228600Y795020D02*
X228600Y779780D01*
X254000Y779780D02*
X254000Y795020D01*
X279400Y795020D02*
X279400Y779780D01*
X304800Y779780D02*
X304800Y795020D01*
X330200Y795020D02*
X330200Y779780D01*
X355600Y779780D02*
X355600Y795020D01*
X381000Y795020D02*
X381000Y779780D01*
X406400Y779780D02*
X406400Y795020D01*
X431800Y795020D02*
X431800Y779780D01*
X457200Y779780D02*
X457200Y795020D01*
X482600Y795020D02*
X482600Y779780D01*
X508000Y779780D02*
X508000Y795020D01*
X533400Y795020D02*
X533400Y779780D01*
X558800Y779780D02*
X558800Y795020D01*
D12*
X342900Y1041400D03*
D13*
X342900Y1016000D03*
X317500Y1041400D03*
X317500Y1016000D03*
X292100Y1041400D03*
X292100Y1016000D03*
X266700Y1041400D03*
X266700Y1016000D03*
X241300Y1041400D03*
X241300Y1016000D03*
X215900Y1041400D03*
X215900Y1016000D03*
X190500Y1041400D03*
X190500Y1016000D03*
X165100Y1041400D03*
X165100Y1016000D03*
X139700Y1041400D03*
X139700Y1016000D03*
X114300Y1041400D03*
X114300Y1016000D03*
D18*
X353770Y462609D03*
X571500Y901700D03*
X444500Y698500D03*
X339278Y381000D03*
X359278Y381000D03*
X508000Y889000D03*
X410962Y609600D03*
X190500Y514322D03*
X431800Y914400D03*
X203200Y419100D03*
X177800Y723900D03*
X191202Y750002D03*
X177800Y355600D03*
X177800Y313210D03*
X320962Y736600D03*
X289278Y736600D03*
X132870Y889000D03*
X292100Y889000D03*
X101600Y891258D03*
X339278Y393700D03*
X304800Y292100D03*
X558800Y114300D03*
X342900Y444500D03*
X368300Y292100D03*
X558800Y152400D03*
X330200Y387322D03*
X330200Y292100D03*
X177800Y241300D03*
X266700Y241300D03*
X330200Y241300D03*
X419100Y165100D03*
X329278Y444500D03*
X375638Y285674D03*
X177800Y127000D03*
X457200Y76200D03*
X482600Y139700D03*
X482600Y165100D03*
X320582Y388338D03*
X457200Y165100D03*
X306922Y395306D03*
X292100Y292100D03*
X558800Y76200D03*
X279400Y395306D03*
X279400Y292100D03*
X177800Y165100D03*
X215900Y863600D03*
X203200Y451678D03*
X222730Y451678D03*
X292100Y571500D03*
X330200Y640870D03*
X165100Y760250D03*
X381000Y571500D03*
X476222Y1054100D03*
X383274Y632726D03*
X469900Y1066800D03*
X381960Y654078D03*
X457200Y1079500D03*
X371922Y644990D03*
X368300Y654078D03*
X320962Y698721D03*
X156182Y698500D03*
X190500Y622300D03*
X304800Y457200D03*
X304800Y520700D03*
X322430Y455779D03*
X431800Y441170D03*
X419100Y501170D03*
X444500Y647700D03*
X571500Y927100D03*
X190500Y381000D03*
X381960Y319594D03*
X558800Y38100D03*
X431800Y952500D03*
X342900Y571500D03*
X215900Y723900D03*
X358844Y454830D03*
X177800Y88900D03*
X228600Y101600D03*
X482600Y101600D03*
X314260Y325910D03*
X177800Y203200D03*
X266700Y203200D03*
X342900Y685800D03*
X381734Y685800D03*
M02*
