G04 EAGLE Gerber RS-274X export*
G75*
%MOMM*%
%FSLAX34Y34*%
%LPD*%
%INSolderpaste Top*%
%IPPOS*%
%AMOC8*
5,1,8,0,0,1.08239X$1,22.5*%
G01*
%ADD10R,1.600000X1.800000*%
%ADD11R,1.800000X1.600000*%
%ADD12R,0.800000X0.400000*%
%ADD13R,1.475000X0.300000*%
%ADD14R,0.300000X1.475000*%
%ADD15R,1.000000X1.500000*%
%ADD16R,1.200000X2.000000*%
%ADD17R,1.450000X1.500000*%
%ADD18R,1.600000X1.000000*%
%ADD19R,1.600000X2.000000*%
%ADD20R,2.000000X1.600000*%
%ADD21R,2.100000X1.400000*%


D10*
X544800Y38100D03*
X572800Y38100D03*
X430500Y647700D03*
X458500Y647700D03*
X430500Y673100D03*
X458500Y673100D03*
X191800Y88900D03*
X163800Y88900D03*
D11*
X215900Y737900D03*
X215900Y709900D03*
D10*
X557500Y927100D03*
X585500Y927100D03*
X557500Y901700D03*
X585500Y901700D03*
D11*
X431800Y900400D03*
X431800Y928400D03*
D10*
X430500Y698500D03*
X458500Y698500D03*
D11*
X203200Y433100D03*
X203200Y405100D03*
D10*
X306100Y381000D03*
X278100Y381000D03*
D12*
X503300Y902400D03*
X503300Y910400D03*
X503300Y918400D03*
X503300Y926400D03*
X487300Y926400D03*
X487300Y918400D03*
X487300Y910400D03*
X487300Y902400D03*
D13*
X278220Y568000D03*
X278220Y563000D03*
X278220Y558000D03*
X278220Y553000D03*
X278220Y548000D03*
X278220Y543000D03*
X278220Y538000D03*
X278220Y533000D03*
X278220Y528000D03*
X278220Y523000D03*
X278220Y518000D03*
X278220Y513000D03*
X278220Y508000D03*
X278220Y503000D03*
X278220Y498000D03*
X278220Y493000D03*
X278220Y488000D03*
X278220Y483000D03*
X278220Y478000D03*
X278220Y473000D03*
X278220Y468000D03*
X278220Y463000D03*
X278220Y458000D03*
X278220Y453000D03*
X278220Y448000D03*
D14*
X295600Y430620D03*
X300600Y430620D03*
X305600Y430620D03*
X310600Y430620D03*
X315600Y430620D03*
X320600Y430620D03*
X325600Y430620D03*
X330600Y430620D03*
X335600Y430620D03*
X340600Y430620D03*
X345600Y430620D03*
X350600Y430620D03*
X355600Y430620D03*
X360600Y430620D03*
X365600Y430620D03*
X370600Y430620D03*
X375600Y430620D03*
X380600Y430620D03*
X385600Y430620D03*
X390600Y430620D03*
X395600Y430620D03*
X400600Y430620D03*
X405600Y430620D03*
X410600Y430620D03*
X415600Y430620D03*
D13*
X432980Y448000D03*
X432980Y453000D03*
X432980Y458000D03*
X432980Y463000D03*
X432980Y468000D03*
X432980Y473000D03*
X432980Y478000D03*
X432980Y483000D03*
X432980Y488000D03*
X432980Y493000D03*
X432980Y498000D03*
X432980Y503000D03*
X432980Y508000D03*
X432980Y513000D03*
X432980Y518000D03*
X432980Y523000D03*
X432980Y528000D03*
X432980Y533000D03*
X432980Y538000D03*
X432980Y543000D03*
X432980Y548000D03*
X432980Y553000D03*
X432980Y558000D03*
X432980Y563000D03*
X432980Y568000D03*
D14*
X415600Y585380D03*
X410600Y585380D03*
X405600Y585380D03*
X400600Y585380D03*
X395600Y585380D03*
X390600Y585380D03*
X385600Y585380D03*
X380600Y585380D03*
X375600Y585380D03*
X370600Y585380D03*
X365600Y585380D03*
X360600Y585380D03*
X355600Y585380D03*
X350600Y585380D03*
X345600Y585380D03*
X340600Y585380D03*
X335600Y585380D03*
X330600Y585380D03*
X325600Y585380D03*
X320600Y585380D03*
X315600Y585380D03*
X310600Y585380D03*
X305600Y585380D03*
X300600Y585380D03*
X295600Y585380D03*
D15*
X431300Y306930D03*
X406300Y306930D03*
X372800Y306930D03*
X356300Y306930D03*
X331300Y306930D03*
X306300Y306930D03*
X282000Y306930D03*
X265000Y306930D03*
X456300Y306930D03*
D16*
X506300Y96830D03*
X226300Y84830D03*
D15*
X389300Y306930D03*
D17*
X231500Y306930D03*
D18*
X342900Y664800D03*
X342900Y706800D03*
D19*
X163800Y241300D03*
X191800Y241300D03*
X163800Y203200D03*
X191800Y203200D03*
X163800Y165100D03*
X191800Y165100D03*
X572800Y76200D03*
X544800Y76200D03*
X163800Y127000D03*
X191800Y127000D03*
X572800Y152400D03*
X544800Y152400D03*
X572800Y114300D03*
X544800Y114300D03*
D20*
X177800Y737900D03*
X177800Y709900D03*
X254000Y737900D03*
X254000Y709900D03*
D21*
X245900Y599800D03*
X185900Y599800D03*
X245900Y644800D03*
X185900Y644800D03*
D20*
X165100Y433100D03*
X165100Y405100D03*
M02*
